<svg width="114" height="117" viewBox="0 0 114 117" fill="none" xmlns="http://www.w3.org/2000/svg">
<mask id="mask0_551_54728" style="mask-type:alpha" maskUnits="userSpaceOnUse" x="0" y="0" width="114" height="117">
<path d="M0 0H113.757V116.445H0V0Z" fill="black"/>
</mask>
<g mask="url(#mask0_551_54728)">
<path d="M56.5445 31.0852C56.2576 30.3885 55.9707 29.6918 55.6838 29.0156C55.5199 28.6672 55.356 28.3394 55.151 28.032C55.0486 27.8886 54.9666 27.7451 54.8437 27.6427C54.5773 27.3148 54.2494 27.0894 53.8806 26.9255C53.4502 26.741 52.9789 26.6796 52.4666 26.6796C50.9913 26.6796 49.5773 27.6632 49.0855 29.2615C49.0445 29.3844 49.0241 29.5279 48.9831 29.6713C49.0445 29.6713 49.106 29.6918 49.147 29.6918C50.8273 29.6713 52.5076 29.6713 54.1879 29.6713H54.3929C54.7412 29.6918 55.0076 29.9787 55.0076 30.3271C55.0076 30.6959 54.7617 30.9828 54.4133 31.0033C54.147 31.0238 53.8806 31.0238 53.6347 31.0238H48.9831C48.9831 31.0852 49.0036 31.1262 49.0036 31.1877C49.4134 32.6426 50.3355 33.6057 51.8519 33.9541C52.0568 33.9951 52.3027 34.0155 52.5281 34.036C53.2453 34.036 53.942 34.0155 54.6388 33.8311C55.2125 33.6877 55.7658 33.4623 56.2576 33.1139V31.4336C56.442 31.5156 56.6264 31.618 56.7904 31.7205C56.7084 31.5156 56.6264 31.2902 56.5445 31.0852ZM56.5445 31.0852C56.2576 30.3885 55.9707 29.6918 55.6838 29.0156C55.5199 28.6672 55.356 28.3394 55.151 28.032C55.0486 27.8886 54.9666 27.7451 54.8437 27.6427C54.5773 27.3148 54.2494 27.0894 53.8806 26.9255C53.4502 26.741 52.9789 26.6796 52.4666 26.6796C50.9913 26.6796 49.5773 27.6632 49.0855 29.2615C49.0445 29.3844 49.0241 29.5279 48.9831 29.6713C49.0445 29.6713 49.106 29.6918 49.147 29.6918C50.8273 29.6713 52.5076 29.6713 54.1879 29.6713H54.3929C54.7412 29.6918 55.0076 29.9787 55.0076 30.3271C55.0076 30.6959 54.7617 30.9828 54.4133 31.0033C54.147 31.0238 53.8806 31.0238 53.6347 31.0238H48.9831C48.9831 31.0852 49.0036 31.1262 49.0036 31.1877C49.4134 32.6426 50.3355 33.6057 51.8519 33.9541C52.0568 33.9951 52.3027 34.0155 52.5281 34.036C53.2453 34.036 53.942 34.0155 54.6388 33.8311C55.2125 33.6877 55.7658 33.4623 56.2576 33.1139V31.4336C56.442 31.5156 56.6264 31.618 56.7904 31.7205C56.7084 31.5156 56.6264 31.2902 56.5445 31.0852ZM55.6428 18.196C49.229 18.196 44.0651 23.3804 44.0651 29.7738C44.0651 36.1877 49.229 41.372 55.6428 41.372C62.0567 41.372 67.2206 36.1877 67.2206 29.7738C67.2206 23.3804 62.0567 18.196 55.6428 18.196V18.196ZM63.3272 30.1221C62.9788 30.9623 62.61 31.8025 62.2411 32.6426C62.0567 33.0934 61.8928 33.5237 61.6879 33.9746C61.4624 34.4869 61.1346 34.9377 60.5813 35.1631C59.7821 35.4909 59.024 35.409 58.3477 34.8557C58.0403 34.6098 57.8149 34.2614 57.651 33.8721C57.61 33.7492 57.5486 33.6262 57.5076 33.5033C57.2617 32.909 57.0363 32.3147 56.7904 31.7205C56.7084 31.5156 56.6264 31.2902 56.5445 31.0852C56.2576 30.3885 55.9707 29.6918 55.6838 29.0156C55.5199 28.6672 55.356 28.3394 55.151 28.032C55.0486 27.8886 54.9666 27.7451 54.8437 27.6427C54.5773 27.3148 54.2494 27.0894 53.8806 26.9255C53.4502 26.741 52.9789 26.6796 52.4666 26.6796C50.9913 26.6796 49.5773 27.6632 49.0855 29.2615C49.0445 29.3844 49.0241 29.5279 48.9831 29.6713C49.0445 29.6713 49.106 29.6918 49.147 29.6918C50.8273 29.6713 52.5076 29.6713 54.1879 29.6713H54.3929C54.7412 29.6918 55.0076 29.9787 55.0076 30.3271C55.0076 30.6959 54.7617 30.9828 54.4133 31.0033C54.147 31.0238 53.8806 31.0238 53.6347 31.0238H48.9831C48.9831 31.0852 49.0036 31.1262 49.0036 31.1877C49.4134 32.6426 50.3355 33.6057 51.8519 33.9541C52.0568 33.9951 52.3027 34.0155 52.5281 34.036C53.2453 34.036 53.942 34.0155 54.6388 33.8311C55.2125 33.6877 55.7658 33.4623 56.2576 33.1139C56.4215 33.0115 56.565 32.8885 56.7084 32.7451C56.7084 32.7451 56.7289 32.7451 56.7699 32.7246C56.8928 33.0524 57.0363 33.4008 57.1797 33.7492C57.2207 33.8311 57.2412 33.9131 57.2822 33.9951C57.1797 34.077 57.0773 34.159 56.9543 34.2409C56.2781 34.7123 55.4994 34.9991 54.7002 35.1631C53.9215 35.327 53.1429 35.3885 52.3437 35.3475C50.6839 35.245 49.3724 34.5073 48.4298 33.1344C47.979 32.4787 47.7331 31.741 47.6306 30.9623C47.5077 29.9172 47.6716 28.9131 48.1634 27.991C48.9011 26.6181 50.0486 25.7369 51.5855 25.4296C52.4666 25.2656 53.3273 25.3066 54.1265 25.5935C54.5158 25.7369 54.8846 25.9214 55.233 26.2083C55.274 26.2083 55.2945 26.2492 55.3355 26.2697C55.8682 26.6796 56.2576 27.1918 56.5445 27.7861C56.8314 28.4009 57.1182 29.0361 57.3846 29.6713C57.651 30.2861 57.9174 30.9418 58.1633 31.577L58.8395 33.2369C58.901 33.3803 58.942 33.5033 59.024 33.6262C59.3313 34.159 60.028 34.1795 60.3559 33.6467C60.4788 33.4623 60.5608 33.2369 60.6428 33.0319C61.3395 31.4131 62.0362 29.7738 62.7124 28.155C62.7944 27.9705 62.8354 27.8066 62.8764 27.6222C62.9173 27.2533 62.7329 26.9255 62.4256 26.7615C62.0977 26.5976 61.6879 26.6386 61.4215 26.864C61.2985 26.9664 61.1961 27.1099 61.1346 27.2533C60.7248 28.1959 60.2944 29.1386 59.8846 30.0607C59.5772 30.7369 59.2494 31.3926 58.942 32.0484C58.9215 32.0893 58.901 32.1303 58.86 32.1713C58.8395 32.1303 58.819 32.0893 58.7985 32.0688C58.6141 31.618 58.4297 31.1467 58.2453 30.6959C58.2043 30.6139 58.2043 30.532 58.2453 30.45C58.5936 29.6918 58.9215 28.9541 59.2698 28.1959C59.4748 27.7451 59.6797 27.2943 59.8846 26.823C60.0485 26.4337 60.2944 26.0853 60.6223 25.7984C61.7493 24.9378 63.655 25.3271 64.1264 26.946C64.2493 27.3968 64.2493 27.8476 64.0649 28.2984C63.8395 28.8927 63.5731 29.5074 63.3272 30.1221ZM56.5445 31.0852C56.2576 30.3885 55.9707 29.6918 55.6838 29.0156C55.5199 28.6672 55.356 28.3394 55.151 28.032C55.0486 27.8886 54.9666 27.7451 54.8437 27.6427C54.5773 27.3148 54.2494 27.0894 53.8806 26.9255C53.4502 26.741 52.9789 26.6796 52.4666 26.6796C50.9913 26.6796 49.5773 27.6632 49.0855 29.2615C49.0445 29.3844 49.0241 29.5279 48.9831 29.6713C49.0445 29.6713 49.106 29.6918 49.147 29.6918C50.8273 29.6713 52.5076 29.6713 54.1879 29.6713H54.3929C54.7412 29.6918 55.0076 29.9787 55.0076 30.3271C55.0076 30.6959 54.7617 30.9828 54.4133 31.0033C54.147 31.0238 53.8806 31.0238 53.6347 31.0238H48.9831C48.9831 31.0852 49.0036 31.1262 49.0036 31.1877C49.4134 32.6426 50.3355 33.6057 51.8519 33.9541C52.0568 33.9951 52.3027 34.0155 52.5281 34.036C53.2453 34.036 53.942 34.0155 54.6388 33.8311C55.2125 33.6877 55.7658 33.4623 56.2576 33.1139V31.4336C56.442 31.5156 56.6264 31.618 56.7904 31.7205C56.7084 31.5156 56.6264 31.2902 56.5445 31.0852Z" fill="black"/>
<path d="M2.68645 80.0437C1.23974 80.0437 0 81.2834 0 82.7322C0 84.181 1.23974 85.4227 2.68645 85.4227C4.1352 85.4227 5.37494 84.181 5.37494 82.7322C5.37494 81.2834 3.93029 80.0437 2.68645 80.0437Z" fill="black"/>
<path d="M111.068 110.24C109.62 110.24 108.38 111.482 108.38 112.929C108.38 114.377 109.62 115.619 111.068 115.619C112.515 115.619 113.757 114.377 113.757 112.929C113.757 111.482 112.515 110.24 111.068 110.24Z" fill="black"/>
<path d="M57.5076 33.5032C57.4256 33.6057 57.3231 33.6877 57.1797 33.7491C57.0362 33.4008 56.8928 33.0524 56.7699 32.7246C56.7289 32.7451 56.7084 32.7451 56.7084 32.7451C56.5649 32.8885 56.4215 33.0114 56.2576 33.1139V31.4336C56.442 31.5156 56.6264 31.618 56.7903 31.7205C57.0362 32.3147 57.2617 32.909 57.5076 33.5032Z" fill="black"/>
<path d="M86.6671 17.9911C85.8269 17.9911 85.4171 17.3764 85.4171 16.7616V2.479H25.8481V105.9H100.929V17.9911H86.6671ZM42.6102 17.9911C41.9954 17.9911 41.3602 17.3764 41.3602 16.7616C41.3602 16.1264 41.9954 15.5116 42.6102 15.5116H55.4379C63.2862 15.5116 69.4952 21.9255 69.4952 29.5689C69.4952 34.3229 67.0157 38.6671 63.4911 41.1671H68.2657C68.8804 41.1671 69.4952 41.7819 69.4952 42.3966C69.4952 43.0114 68.8804 43.6466 68.2657 43.6466H55.4379C47.5692 43.6466 41.3602 37.2327 41.3602 29.5689C41.3602 24.8148 43.8397 20.4706 47.3642 17.9911H42.6102ZM63.2862 63.298C63.2862 64.7324 62.0567 65.9824 60.6018 65.9824C59.1469 65.9824 57.9174 64.7324 57.9174 63.298C57.9174 61.8431 59.1469 60.5931 60.6018 60.5931C62.0567 60.5931 63.2862 61.8431 63.2862 63.298ZM34.9463 54.1793H53.1634C53.7781 54.1793 54.3929 54.8145 54.3929 55.4292C54.3929 56.044 53.7781 56.6792 53.1634 56.6792H34.9463C34.3316 56.6792 33.7168 56.044 33.7168 55.4292C33.7168 54.8145 34.1267 54.1793 34.9463 54.1793ZM34.9463 62.048H53.1634C53.7781 62.048 54.3929 62.6628 54.3929 63.298C54.3929 63.9128 53.7781 64.5275 53.1634 64.5275H34.9463C34.3316 64.5275 33.7168 63.9128 33.7168 63.298C33.7168 62.6628 34.1267 62.048 34.9463 62.048ZM83.9827 95.5518H34.9463C34.3316 95.5518 33.7168 94.937 33.7168 94.3223C33.7168 93.687 34.3316 93.0723 34.9463 93.0723H84.1876C84.8024 93.0723 85.4171 93.687 85.4171 94.3223C85.4171 94.937 84.8024 95.5518 83.9827 95.5518ZM83.9827 87.9084H34.9463C34.3316 87.9084 33.7168 87.2732 33.7168 86.6584C33.7168 86.0437 34.3316 85.4289 34.9463 85.4289H84.1876C84.8024 85.4289 85.4171 86.0437 85.4171 86.6584C85.4171 87.2732 84.8024 87.9084 83.9827 87.9084ZM83.9827 80.0396H34.9463C34.3316 80.0396 33.7168 79.4249 33.7168 78.8101C33.7168 78.1749 34.3316 77.5602 34.9463 77.5602H84.1876C84.8024 77.5602 85.4171 78.1749 85.4171 78.8101C85.4171 79.4249 84.8024 80.0396 83.9827 80.0396ZM83.9827 72.3963H34.9463C34.3316 72.3963 33.7168 71.761 33.7168 71.1463C33.7168 70.5315 34.3316 69.9168 34.9463 69.9168H84.1876C84.8024 69.9168 85.4171 70.5315 85.4171 71.1463C85.4171 71.761 84.8024 72.3963 83.9827 72.3963Z" fill="black"/>
<path d="M87.9037 4.34326V15.5112H99.0717L87.9037 4.34326Z" fill="black"/>
<path d="M23.3706 107.345V15.5117H15.5121V116.445H85.4192V108.584H24.6104C23.7846 108.587 23.3706 107.966 23.3706 107.345Z" fill="black"/>
<path d="M53.8806 26.9255C54.2494 27.0895 54.5773 27.3149 54.8437 27.6427C54.5568 27.5813 54.3314 27.4378 54.1879 27.2944C54.0855 27.1919 53.9625 27.069 53.8806 26.9255Z" fill="black"/>
<path d="M55.233 25.2246V26.2082C54.8847 25.9213 54.5158 25.7369 54.1265 25.5935C54.3929 25.3476 54.7822 25.2246 55.233 25.2246Z" fill="black"/>
<path d="M113.757 3.92994C113.757 1.86234 112.101 0.00170898 109.827 0.00170898C107.552 0.00170898 105.898 1.65538 105.898 3.92994C105.898 6.20451 107.552 7.86023 109.827 7.86023C112.101 7.86023 113.757 5.99755 113.757 3.92994Z" fill="black"/>
<path d="M6.41182 5.37646C4.34217 5.37646 2.48154 7.03218 2.48154 9.30675C2.48154 11.3744 4.13726 13.237 6.41182 13.237C8.47942 13.237 10.3421 11.5813 10.3421 9.30675C10.1331 7.03218 8.47942 5.37646 6.41182 5.37646Z" fill="black"/>
</g>
</svg>
