<svg width="111" height="113" viewBox="0 0 111 113" fill="none" xmlns="http://www.w3.org/2000/svg">
<path d="M44.2203 97.0881H66.4298V104.558H44.2203V97.0881Z" fill="black"/>
<mask id="mask0_551_54807" style="mask-type:alpha" maskUnits="userSpaceOnUse" x="0" y="0" width="111" height="113">
<path d="M0 0H110.454V112.025H0V0Z" fill="black"/>
</mask>
<g mask="url(#mask0_551_54807)">
<path d="M39.3076 61.5164C39.3076 55.4237 34.393 50.511 28.3022 50.511C22.2095 50.511 17.2968 55.4237 17.2968 61.5164C17.2968 67.6091 22.2095 72.5219 28.3022 72.5219C34.393 72.5219 39.3076 67.4105 39.3076 61.5164Z" fill="black"/>
<path d="M79.7934 106.915H67.4132H43.0424H30.6603C29.2836 106.915 28.1056 108.093 28.1056 109.47C28.1056 110.846 29.2836 112.024 30.6603 112.024H79.7934C81.17 112.024 82.3481 110.846 82.3481 109.47C82.3481 108.093 81.17 106.915 79.7934 106.915Z" fill="black"/>
<path d="M29.8736 63.6779C29.6769 63.4793 29.2836 63.2845 28.8922 63.0879V65.4459C29.8736 65.4459 30.4636 65.0526 30.4636 64.4626C30.2669 64.0693 30.2669 63.6779 29.8736 63.6779Z" fill="black"/>
<path d="M26.5322 58.1752C26.5322 58.5666 26.7289 58.7652 26.9256 58.9599C27.1222 59.1566 27.5155 59.3533 27.9089 59.3533V57.1919C27.1222 57.1919 26.5322 57.5852 26.5322 58.1752Z" fill="black"/>
<path d="M100.626 75.0767H65.0532C64.4652 75.0767 63.8752 74.4867 63.8752 73.8967C63.8752 73.3067 64.4652 72.7187 65.0532 72.7187H100.626V25.9417H9.82739V79.9894H100.823V75.0767H100.626ZM88.4427 34.3924C88.4427 33.8024 89.0307 33.2124 89.6207 33.2124C90.2107 33.2124 90.8007 33.8024 90.8007 34.3924V49.1325C90.8007 49.7225 90.2107 50.3125 89.6207 50.3125C89.0307 50.3125 88.4427 49.7225 88.4427 49.1325V34.3924ZM80.9733 36.9471C80.9733 36.359 81.5633 35.769 82.1533 35.769C82.7413 35.769 83.3313 36.359 83.3313 36.9471V49.3311C83.3313 49.9211 82.7413 50.5092 82.1533 50.5092C81.5633 50.5092 80.9733 49.9211 80.9733 49.3311V36.9471ZM73.7006 39.3051C73.7006 38.7171 74.2925 38.1271 74.8806 38.1271C75.4706 38.1271 76.0606 38.7171 76.0606 39.3051V49.1325C76.0606 49.7225 75.4706 50.3125 74.8806 50.3125C74.2925 50.3125 73.7006 49.7225 73.7006 49.1325V39.3051ZM66.2332 41.8618C66.2332 41.2718 66.8232 40.6818 67.4132 40.6818C68.0012 40.6818 68.5912 41.2718 68.5912 41.8618V49.3311C68.5912 49.9211 68.0012 50.5092 67.4132 50.5092C66.8232 50.5092 66.2332 49.9211 66.2332 49.3311V41.8618ZM66.8232 62.8913L74.2925 57.9766C74.8806 57.5852 75.6673 57.7819 76.0606 58.3699L80.1866 64.6593L91.3907 55.6186C91.9787 55.2252 92.7654 55.2252 93.1587 55.8152C93.5521 56.4052 93.5521 57.1919 92.9621 57.5852L80.58 67.4107C80.3833 67.6093 80.1866 67.6093 79.7933 67.6093H79.5986C79.2033 67.6093 79.0086 67.4107 78.8119 67.0193L74.4873 60.728L68.1979 65.0526C67.6079 65.446 66.8232 65.2512 66.4299 64.6593C66.0365 64.0693 66.2332 63.2846 66.8232 62.8913ZM15.9182 30.8563H23.3875C23.9775 30.8563 24.5675 31.4444 24.5675 32.0344C24.5675 32.6244 23.9775 33.2124 23.3875 33.2124H15.9182C15.3301 33.2124 14.7401 32.6244 14.7401 32.0344C14.7401 31.2497 15.3301 30.8563 15.9182 30.8563ZM15.9182 38.1271H23.3875C23.9775 38.1271 24.5675 38.7171 24.5675 39.3051C24.5675 39.8951 23.9775 40.4851 23.3875 40.4851H15.9182C15.3301 40.4851 14.7401 39.8951 14.7401 39.3051C14.7401 38.7171 15.3301 38.1271 15.9182 38.1271ZM40.4876 74.88H28.3022C20.8328 74.88 14.9368 68.7873 14.9368 61.5166C14.9368 56.9933 17.2948 52.8672 20.6362 50.5092H15.9182C15.3301 50.5092 14.7401 49.9211 14.7401 49.3311C14.7401 48.7411 15.3301 48.1492 15.9182 48.1492H28.1055C35.5729 48.1492 41.469 54.2439 41.469 61.5166C41.469 66.036 39.111 70.162 35.7696 72.522H40.291C40.879 72.522 41.469 73.112 41.469 73.7C41.469 74.29 41.0757 74.88 40.4876 74.88V74.88ZM57.7824 76.2547C56.4058 76.2547 55.2277 75.0767 55.2277 73.7C55.2277 72.3234 56.4058 71.1453 57.7824 71.1453C59.1572 71.1453 60.3371 72.3234 60.3371 73.7C60.1405 75.0767 58.9605 76.2547 57.7824 76.2547Z" fill="black"/>
<path d="M2.35803 23.5835V89.62C2.35803 92.3714 4.71606 94.7294 7.46742 94.7294H42.8437H67.4112H102.788C105.539 94.7294 107.899 92.3714 107.899 89.62V23.5835C107.899 20.8321 105.539 18.4722 102.788 18.4722H7.46742C4.71606 18.4722 2.35803 20.8321 2.35803 23.5835ZM7.27076 24.5668C7.27076 23.9749 7.86075 23.3868 8.4488 23.3868H101.804C102.396 23.3868 102.984 23.9749 102.984 24.5668V81.1673C102.984 81.7593 102.396 82.3493 101.804 82.3493H8.64741C8.05742 82.3493 7.46742 81.7593 7.46742 81.1673V24.5668H7.27076Z" fill="black"/>
<path d="M94.5335 100.627C95.9452 100.627 97.0882 101.77 97.0882 103.182C97.0882 104.592 95.9452 105.737 94.5335 105.737C93.1218 105.737 91.9788 104.592 91.9788 103.182C91.9788 101.77 93.1218 100.627 94.5335 100.627Z" fill="black"/>
<path d="M40.4857 -0.000488281C41.8974 -0.000488281 43.0404 1.14445 43.0404 2.55421C43.0404 3.96591 41.8974 5.1089 40.4857 5.1089C39.074 5.1089 37.931 3.96591 37.931 2.55421C37.931 1.14445 39.074 -0.000488281 40.4857 -0.000488281Z" fill="black"/>
<path d="M99.4481 4.91406C100.86 4.91406 102.003 6.05705 102.003 7.46876C102.003 8.88046 100.86 10.0235 99.4481 10.0235C98.0364 10.0235 96.8934 8.88046 96.8934 7.46876C96.8934 6.05705 98.0364 4.91406 99.4481 4.91406Z" fill="black"/>
<path d="M69.9679 4.91406C71.3796 4.91406 72.5226 6.05705 72.5226 7.46876C72.5226 8.88046 71.3796 10.0235 69.9679 10.0235C68.5562 10.0235 67.4132 8.88046 67.4132 7.46876C67.4132 6.05705 68.5562 4.91406 69.9679 4.91406Z" fill="black"/>
<path d="M3.73474 7.27026C5.1445 7.27026 6.28944 8.4152 6.28944 9.82496C6.28944 11.2367 5.1445 12.3797 3.73474 12.3797C2.32109 12.3797 1.1781 11.2367 1.1781 9.82496C1.1781 8.4152 2.32109 7.27026 3.73474 7.27026Z" fill="black"/>
<path d="M109.275 102.002H101.806C101.216 102.002 100.628 102.592 100.628 103.18C100.628 103.772 101.216 104.362 101.806 104.362H109.275C109.865 104.362 110.453 103.77 110.453 103.18C110.453 102.592 109.865 102.002 109.275 102.002Z" fill="black"/>
<path d="M15.9182 100.627C17.3299 100.627 18.4729 101.77 18.4729 103.182C18.4729 104.592 17.3299 105.737 15.9182 105.737C14.5065 105.737 13.3635 104.592 13.3635 103.182C13.3635 101.77 14.5065 100.627 15.9182 100.627Z" fill="black"/>
<path d="M8.64741 102.002H1.17804C0.589994 102.002 0 102.592 0 103.18C0 103.772 0.589994 104.362 1.17804 104.362H8.64741C9.2374 104.362 9.82545 103.77 9.82545 103.18C9.82545 102.592 9.2374 102.002 8.64741 102.002Z" fill="black"/>
<path d="M19.6528 11.2014C22.4042 11.2014 24.5656 9.04005 24.5656 6.2887C24.5656 3.53539 22.4042 1.37402 19.6528 1.37402C16.9015 1.37402 14.7401 3.53539 14.7401 6.2887C14.7401 9.04005 16.9015 11.2014 19.6528 11.2014Z" fill="black"/>
</g>
</svg>
