<svg width="116" height="125" viewBox="0 0 116 125" fill="none" xmlns="http://www.w3.org/2000/svg">
<mask id="mask0_551_54784" style="mask-type:alpha" maskUnits="userSpaceOnUse" x="0" y="0" width="116" height="125">
<path d="M0 0H116V124.169H0V0Z" fill="black"/>
</mask>
<g mask="url(#mask0_551_54784)">
<path d="M59.3229 115.782C60.8677 115.782 62.1895 114.458 62.1895 112.915C62.1895 111.37 60.8677 110.048 59.3229 110.048C57.7782 110.048 56.4563 111.37 56.4563 112.915C56.677 114.458 57.7782 115.782 59.3229 115.782Z" fill="black"/>
<path d="M59.3164 27.5737C50.2926 27.5737 42.7765 35.068 42.7765 44.1136C42.7765 53.1592 50.2926 60.6535 59.3164 60.6535C68.362 60.6535 75.8563 53.1592 75.8563 44.1136C75.8563 35.068 68.5805 27.5737 59.3164 27.5737V27.5737ZM66.8544 50.5373L60.9988 51.7827C61.0643 51.0835 61.2391 50.4062 61.5232 49.7944L67.3788 48.549C67.3132 49.2482 67.1166 49.9255 66.8544 50.5373ZM67.3788 44.8347C67.3132 45.5338 67.1166 46.1893 66.8544 46.8011L62.3316 47.7625L60.9988 48.0465V44.3321L59.1635 44.7036V46.7792C59.1635 46.9759 59.1197 47.1507 59.0105 47.2818L58.071 48.702C57.8306 49.0297 57.4592 49.2919 57.0441 49.3793L51.8658 50.4718C51.9532 49.7726 52.128 49.1171 52.412 48.5053L57.35 47.4566V45.0968L52.7398 46.0801C52.8053 45.3809 52.9801 44.7036 53.2641 44.0918L57.35 43.2397V35.9857C57.8525 35.3739 58.4643 34.8495 59.1635 34.4563V42.8464L60.9988 42.4531V36.9034C61.5013 36.2697 62.1131 35.7454 62.8123 35.3521V42.0598L67.3788 41.0984C67.3132 41.7976 67.1166 42.4749 66.8544 43.0867L62.8123 43.9388V45.796L67.3788 44.8347Z" fill="black"/>
<path d="M7.0573 30.2132C8.59986 30.2132 9.92392 28.8892 9.92392 27.3466C9.92392 25.8019 8.59986 24.48 7.0573 24.48C5.51256 24.48 4.19067 25.8019 4.19067 27.3466C4.19067 28.8892 5.51256 30.2132 7.0573 30.2132Z" fill="black"/>
<path d="M57.35 38.6514V40.2901C57.2189 40.0716 57.1096 39.7657 57.1096 39.4816C57.1096 39.1758 57.197 38.8917 57.35 38.6514Z" fill="black"/>
<path d="M62.6376 48.287C62.6376 49.4013 61.9602 49.8383 60.4308 49.8383V46.5391C60.6493 46.6046 60.8241 46.6702 60.9989 46.7576V48.0467L62.3317 47.7626C62.4191 47.9156 62.5283 48.0685 62.6376 48.287Z" fill="black"/>
<path d="M83.8094 0H34.8452C30.2131 0 26.2366 3.75808 26.2366 8.60861V13.8961H92.3962V8.60861C92.3962 3.97657 88.66 0 83.8094 0ZM63.5114 8.14978H55.1432C54.4658 8.14978 53.8104 7.4943 53.8104 6.83882C53.8104 6.18335 54.4658 5.50602 55.1432 5.50602H63.5114C64.1669 5.50602 64.8442 6.18335 64.8442 6.83882C64.8442 7.4943 64.1669 8.14978 63.5114 8.14978Z" fill="black"/>
<path d="M110.267 99.2395C108.06 99.2395 106.076 101.005 106.076 103.43C106.076 105.855 107.841 107.619 110.267 107.619C112.692 107.619 114.457 105.855 114.457 103.43C114.457 101.005 112.692 99.2395 110.267 99.2395Z" fill="black"/>
<path d="M26.4551 102.102V115.561H26.2366C26.2366 120.193 29.9946 124.169 34.8452 124.169H84.0279C88.66 124.169 92.6147 120.411 92.6147 115.561V102.102H26.4551ZM59.3164 118.423C56.2356 118.423 53.8104 115.998 53.8104 112.917C53.8104 109.836 56.2356 107.389 59.3164 107.389C62.419 107.389 64.8442 109.836 64.8442 112.917C64.8442 115.998 62.419 118.423 59.3164 118.423Z" fill="black"/>
<path d="M94.603 44.1136H92.3962V16.5398H26.2366V22.0458H23.8113C23.1558 22.0458 22.5004 22.7231 22.5004 23.3786V26.2409C22.5004 26.8964 23.1558 27.5737 23.8113 27.5737H26.2366V33.0797H23.8113C23.1558 33.0797 22.5004 33.7352 22.5004 34.4125V37.2748C22.5004 37.9302 23.1558 38.5857 23.8113 38.5857H26.2366V69.0218H33.0754C33.7309 69.0218 34.4082 69.6772 34.4082 70.3546C34.4082 71.01 33.7309 71.6655 33.0754 71.6655H26.2366V99.2393H92.3962V88.2054H80.0514C79.3959 88.2054 78.7404 87.5499 78.7404 86.8945C78.7404 86.239 79.3959 85.5617 80.0514 85.5617H92.3962V54.2516H94.603C95.2803 54.2516 95.9358 53.5962 95.9358 52.9188V45.4245C95.9358 44.7691 95.4988 44.1136 94.603 44.1136ZM38.6033 70.3546C38.6033 68.8033 39.9142 67.4923 41.4655 67.4923C42.995 67.4923 44.3278 68.8033 44.3278 70.3546C44.3278 71.884 42.995 72.9983 41.4655 72.9983C39.9142 72.9983 38.6033 71.6655 38.6033 70.3546ZM71.6831 89.5382C70.1318 89.5382 68.799 88.2054 68.799 86.676C68.799 85.1247 70.1318 83.7919 71.6831 83.7919C73.2125 83.7919 74.5453 85.1247 74.5453 86.676C74.5453 88.2054 73.2125 89.5382 71.6831 89.5382ZM75.4193 71.2285L61.5232 85.1247C61.3047 85.3432 60.8677 85.5617 60.6492 85.5617H60.4307C59.9937 85.5617 59.5349 85.1247 59.3164 84.6877L54.6844 72.7798L42.3395 85.1247C41.9025 85.5617 41.0286 85.5617 40.3512 85.1247C39.9142 84.6877 39.9142 83.7919 40.3512 83.1364L54.2474 69.2402C54.4659 69.0218 55.1432 68.8033 55.5802 68.8033C56.0172 68.8033 56.4541 69.2402 56.6726 69.6772L61.3047 81.6069L73.6495 69.2402C74.1084 68.8033 74.9823 68.8033 75.6378 69.2402C76.0748 69.9176 76.0748 70.5731 75.4193 71.2285ZM59.3164 63.2972C48.7413 63.2972 40.1327 54.6886 40.1327 44.1136C40.1327 33.5167 48.7413 24.9299 59.3164 24.9299C69.9133 24.9299 78.5219 33.5167 78.5219 44.1136C78.5219 54.6886 70.1318 63.2972 59.3164 63.2972Z" fill="black"/>
<path d="M110.267 53.5898C111.851 53.5898 113.133 54.8724 113.133 56.4565C113.133 58.0405 111.851 59.3253 110.267 59.3253C108.683 59.3253 107.4 58.0405 107.4 56.4565C107.4 54.8724 108.683 53.5898 110.267 53.5898Z" fill="black"/>
<path d="M113.136 20.51C114.72 20.51 116 21.7926 116 23.3766C116 24.9607 114.72 26.2454 113.136 26.2454C111.551 26.2454 110.269 24.9607 110.269 23.3766C110.269 21.7926 111.551 20.51 113.136 20.51Z" fill="black"/>
<path d="M13.894 6.83667C15.478 6.83667 16.7606 8.11922 16.7606 9.7033C16.7606 11.2874 15.478 12.5699 13.894 12.5699C12.3099 12.5699 11.0273 11.2874 11.0273 9.7033C11.0273 8.11922 12.3099 6.83667 13.894 6.83667Z" fill="black"/>
<path d="M2.86663 42.5625C4.4507 42.5625 5.73325 43.8451 5.73325 45.4291C5.73325 47.0132 4.4507 48.2958 2.86663 48.2958C1.28255 48.2958 0 47.0132 0 45.4291C0 43.8451 1.28255 42.5625 2.86663 42.5625Z" fill="black"/>
<path d="M5.51262 108.724C7.09669 108.724 8.37925 110.007 8.37925 111.591C8.37925 113.175 7.09669 114.457 5.51262 114.457C3.92855 114.457 2.646 113.175 2.646 111.591C2.646 110.007 3.92855 108.724 5.51262 108.724Z" fill="black"/>
<path d="M11.0274 84.0237C12.6115 84.0237 13.894 85.3062 13.894 86.8903C13.894 88.4744 12.6115 89.7569 11.0274 89.7569C9.44332 89.7569 8.16077 88.4744 8.16077 86.8903C8.16077 85.3062 9.44332 84.0237 11.0274 84.0237Z" fill="black"/>
</g>
</svg>
