<svg width="110" height="119" viewBox="0 0 110 119" fill="none" xmlns="http://www.w3.org/2000/svg">
<mask id="mask0_551_54741" style="mask-type:alpha" maskUnits="userSpaceOnUse" x="0" y="0" width="110" height="119">
<path d="M0 0H109.224V118.473H0V0Z" fill="black"/>
</mask>
<g mask="url(#mask0_551_54741)">
<path d="M96.3504 33.6232L95.6797 34.5175C94.5618 35.6577 92.9744 36.3284 91.387 36.3284C89.822 36.3284 88.2346 35.6577 87.1167 34.5175C84.635 32.0358 84.635 28.2126 87.1167 25.7309L90.0456 22.802H57.7611C54.3851 22.802 51.6798 20.0744 51.6798 16.6984C51.6798 14.2167 53.0212 12.1821 55.0558 11.2878C27.9806 11.2878 5.8689 33.3996 5.8689 60.6983C5.8689 69.5072 8.3506 78.2938 12.6433 85.7613L14.4319 83.9503C15.5721 82.8101 17.1595 82.1393 18.7246 82.1393C20.312 82.1393 21.8994 82.8101 23.0172 83.9503C24.1575 85.0682 24.8282 86.6556 24.8282 88.243C24.8282 89.808 24.1575 91.3954 23.0172 92.5133L20.0884 95.4645H52.1269C55.5029 95.4645 58.2306 98.1698 58.2306 101.546C58.2306 104.922 55.5029 107.649 52.1269 107.649H40.3892C45.129 108.991 49.8688 109.662 54.8322 109.662C82.1533 109.662 104.265 87.5499 104.265 60.2512C104.489 50.9951 101.783 41.739 96.3504 33.6232ZM17.1595 60.4747C17.1595 61.1455 16.4664 61.8386 15.7957 61.8386C15.125 61.8386 14.4319 61.1455 14.4319 60.4747C14.4319 52.1353 16.9359 43.9971 21.8994 36.9992C26.6168 30.2472 33.1676 25.2614 40.8363 22.3325C41.5294 22.109 42.4237 22.3325 42.6473 23.2492C42.8709 23.9199 42.6473 24.8142 41.753 25.0378C26.8628 30.6943 17.1595 44.9138 17.1595 60.4747ZM55.0558 90.0316C38.8241 90.0316 25.4989 76.7288 25.4989 60.4747C25.4989 44.2207 38.8241 30.9179 55.0558 30.9179C71.3098 30.9179 84.635 44.2207 84.635 60.4747C84.635 76.9523 71.3098 90.0316 55.0558 90.0316V90.0316ZM88.4582 83.9503C83.7183 90.7247 77.1675 95.6881 69.4988 98.6169H69.0517C68.381 98.6169 67.9338 98.1698 67.7102 97.7226C67.4643 97.0295 67.7102 96.1352 68.6045 95.9117C83.2712 90.2552 92.9744 76.058 92.9744 60.4747C92.9744 59.804 93.6451 59.1109 94.3382 59.1109C95.009 59.1109 95.6797 59.804 95.6797 60.4747C95.9033 69.0601 93.4216 77.1759 88.4582 83.9503Z" fill="black"/>
<path d="M55.0558 33.8467C40.3892 33.8467 28.4278 45.808 28.4278 60.4747C28.4278 75.1413 40.3892 87.3262 55.0558 87.3262C69.7224 87.3262 81.6838 75.3649 81.6838 60.6982C81.6838 46.0316 69.7224 33.8467 55.0558 33.8467V33.8467ZM67.8667 72.5031L56.7997 74.8507C56.9338 73.5316 57.2692 72.2795 57.8058 71.1169L68.8728 68.747C68.7387 70.0661 68.4033 71.3405 67.8667 72.5031ZM68.8728 61.7044C68.7387 63.0235 68.4033 64.2755 67.8667 65.4381L59.7733 67.1596L56.7997 67.7856V60.743L53.3566 61.4808V65.3934C53.3566 65.7511 53.2448 66.0864 53.0436 66.3547L51.255 69.0153C50.8078 69.6637 50.1371 70.1332 49.3322 70.2897L39.5396 72.369C39.6737 71.0499 40.0314 69.7978 40.5457 68.6352L49.8912 66.6454V62.2186L41.1717 64.0519C41.3058 62.7328 41.6635 61.4808 42.1778 60.3182L49.8912 58.6861V44.9584C50.8526 43.7958 52.0151 42.8121 53.3566 42.0743V57.9483L56.7997 57.2105V46.7023C57.7611 45.5174 58.9237 44.5336 60.2428 43.7958V56.4727L68.8728 54.6393C68.7387 55.9584 68.4033 57.2328 67.8667 58.3954L60.2428 60.0052V63.5377L68.8728 61.7044Z" fill="black"/>
<path d="M54.1615 50.7715V56.182C53.8932 56.115 53.6249 56.0255 53.3566 55.9137V50.928C53.6026 50.8609 53.8709 50.8162 54.1615 50.7715Z" fill="black"/>
<path d="M59.7956 67.4725C59.7956 68.8363 58.6777 69.7306 56.4196 69.7306V64.3201C56.5538 64.3424 56.6879 64.3871 56.7997 64.4319V67.7855L59.7733 67.1595C59.7956 67.2713 59.7956 67.3607 59.7956 67.4725Z" fill="black"/>
<path d="M5.64084 16.9241C8.80222 16.9241 11.2839 14.4424 11.2839 11.2832C11.2839 8.12407 8.80222 5.64014 5.64084 5.64014C2.4817 5.64014 0 8.12407 0 11.2832C0 14.4424 2.4817 16.9241 5.64084 16.9241Z" fill="black"/>
<path d="M57.77 20.0832H93.426C94.1035 20.0832 94.5529 20.5348 94.7787 20.9864C95.0045 21.4358 94.7787 22.1132 94.5529 22.5649L88.912 27.7563C87.5572 29.1112 87.5572 31.1413 88.912 32.4939C89.5872 33.1714 90.2669 33.3972 91.1679 33.3972C92.0712 33.3972 92.9744 32.9455 93.426 32.4939L109.222 16.6982L93.426 0.900282C92.7486 0.22508 92.0712 -0.000732422 91.1679 -0.000732422C90.2669 -0.000732422 89.3637 0.450893 88.912 0.900282C87.5572 2.25516 87.5572 4.28747 88.912 5.64011L94.3271 11.0574C94.7787 11.509 94.7787 11.9584 94.5529 12.6358C94.3271 13.0875 93.8754 13.3133 93.426 13.3133H57.77C55.9635 13.3133 54.3851 14.8917 54.3851 16.6982C54.3851 18.5047 55.9635 20.0832 57.77 20.0832Z" fill="black"/>
<path d="M103.129 109.898C100.873 109.898 98.8433 111.705 98.8433 114.187C98.8433 116.668 100.648 118.473 103.129 118.473C105.611 118.473 107.417 116.668 107.417 114.187C107.417 111.705 105.385 109.898 103.129 109.898Z" fill="black"/>
<path d="M15.7957 107.414C15.3441 106.963 15.3441 106.513 15.5699 105.834C15.7957 105.384 16.2474 104.933 16.9248 104.933H52.355C54.1615 104.933 55.74 103.352 55.74 101.548C55.74 99.7413 54.1615 98.1629 52.355 98.1629H16.699C16.0215 98.1629 15.5699 97.7113 15.3441 97.2596C15.1183 96.808 15.3441 96.1328 15.5699 95.6789L20.9849 90.2639C21.6669 89.5865 21.8882 88.9113 21.8882 88.008C21.8882 87.1048 21.4388 86.2015 20.9849 85.7521C20.5356 85.2983 19.6323 84.8489 18.7291 84.8489C17.8258 84.8489 16.9248 85.2983 16.4732 85.7521L13.314 88.9113L0.675232 101.548L16.4732 117.344C17.1484 118.021 17.8258 118.247 18.7291 118.247C19.6323 118.247 20.5356 117.795 20.9849 117.344C21.6669 116.668 21.8882 115.989 21.8882 115.088C21.8882 114.184 21.4388 113.281 20.9849 112.83L15.7957 107.414Z" fill="black"/>
</g>
</svg>
