<svg width="123" height="121" viewBox="0 0 123 121" fill="none" xmlns="http://www.w3.org/2000/svg">
<mask id="mask0_551_54764" style="mask-type:alpha" maskUnits="userSpaceOnUse" x="0" y="0" width="123" height="121">
<path d="M0 0H122.744V120.159H0V0Z" fill="black"/>
</mask>
<g mask="url(#mask0_551_54764)">
<path d="M62.4841 39.4945C63.5296 39.4945 64.1569 39.0784 64.1569 38.4511C64.1569 38.0328 63.9478 37.8237 63.7366 37.6146C63.5296 37.4055 63.1114 37.1985 62.6911 36.9873V39.4945H62.4841Z" fill="black"/>
<path d="M60.1838 31.9728C60.1838 32.3889 60.3929 32.6001 60.6021 32.8072C60.8112 33.0163 61.2294 33.2254 61.6476 33.4345V30.9272C60.6021 30.9272 60.1838 31.3455 60.1838 31.9728Z" fill="black"/>
<path d="M50.1549 35.3165C50.1549 41.7947 55.3785 47.0183 61.8567 47.0183C68.3349 47.0183 73.5605 41.7947 73.5605 35.3165C73.5605 28.8383 68.3349 23.6147 61.8567 23.6147C55.3785 23.6147 50.1549 28.8383 50.1549 35.3165Z" fill="black"/>
<path d="M106.368 105.74C107.869 105.74 109.084 106.956 109.084 108.455C109.084 109.956 107.869 111.173 106.368 111.173C104.867 111.173 103.651 109.956 103.651 108.455C103.651 106.956 104.867 105.74 106.368 105.74Z" fill="black"/>
<path d="M25.2876 105.74C26.7866 105.74 28.004 106.956 28.004 108.455C28.004 109.956 26.7866 111.173 25.2876 111.173C23.7845 111.173 22.5713 109.956 22.5713 108.455C22.5713 106.956 23.7845 105.74 25.2876 105.74Z" fill="black"/>
<path d="M72.3059 74.3948C73.807 74.3948 75.0223 75.6122 75.0223 77.1111C75.0223 78.6121 73.807 79.8274 72.3059 79.8274C70.8049 79.8274 69.5896 78.6121 69.5896 77.1111C69.5896 75.6122 70.8049 74.3948 72.3059 74.3948Z" fill="black"/>
<path d="M114.099 11.7017C115.6 11.7017 116.815 12.919 116.815 14.418C116.815 15.919 115.6 17.1343 114.099 17.1343C112.598 17.1343 111.382 15.919 111.382 14.418C111.382 12.919 112.598 11.7017 114.099 11.7017Z" fill="black"/>
<path d="M111.591 40.54C113.092 40.54 114.308 41.7574 114.308 43.2564C114.308 44.7574 113.092 45.9748 111.591 45.9748C110.09 45.9748 108.875 44.7574 108.875 43.2564C108.875 41.7574 110.09 40.54 111.591 40.54Z" fill="black"/>
<path d="M28.0019 40.54C29.5029 40.54 30.7182 41.7574 30.7182 43.2564C30.7182 44.7574 29.5029 45.9748 28.0019 45.9748C26.5008 45.9748 25.2855 44.7574 25.2855 43.2564C25.2855 41.7574 26.5008 40.54 28.0019 40.54Z" fill="black"/>
<path d="M95.9186 24.8672C97.4196 24.8672 98.6349 26.0846 98.6349 27.5835C98.6349 29.0846 97.4196 30.3019 95.9186 30.3019C94.4176 30.3019 93.2023 29.0846 93.2023 27.5835C93.2023 26.0846 94.4176 24.8672 95.9186 24.8672Z" fill="black"/>
<path d="M9.61276 32.6001C11.1138 32.6001 12.3291 33.8154 12.3291 35.3144C12.3291 36.8154 11.1138 38.0328 9.61276 38.0328C8.11174 38.0328 6.89642 36.8154 6.89642 35.3144C6.89642 33.8154 8.11174 32.6001 9.61276 32.6001Z" fill="black"/>
<path d="M116.608 66.0366C114.726 66.0366 113.053 66.871 111.8 68.3347L106.368 74.3947C102.604 78.5748 97.1712 81.0841 91.3203 81.0841H89.6495C84.8421 81.0841 79.4094 83.3802 75.2314 87.3512C70.6331 91.5292 68.1258 96.9639 68.1258 102.606V117.653H54.9603V102.606C54.9603 90.6948 45.3475 81.0841 33.4346 81.0841H31.7638C26.122 81.0841 20.6893 78.5748 16.7183 74.3947L11.2856 68.3347C10.031 66.871 8.35812 66.0366 6.47822 66.0366C3.34366 66.0366 0 68.5438 0 72.5148C0 74.1877 0.627325 75.6494 1.6708 76.902L14.8384 91.7404C19.2255 96.5457 25.2855 99.2641 31.7638 99.2641C34.4801 99.2641 36.5712 101.353 36.5712 104.069V117.653H27.3746C26.7493 117.653 26.122 118.279 26.122 118.906C26.122 119.533 26.7493 120.16 27.3746 120.16H37.8238H53.4986H69.1693H84.8421H95.2913C95.9186 120.16 96.5459 119.533 96.5459 118.906C96.5459 118.279 95.9186 117.653 95.2913 117.653H86.0967V104.069C86.0967 101.353 88.1878 99.2641 90.9041 99.2641C97.3823 99.2641 103.442 96.5457 107.829 91.7404L120.995 76.902C122.041 75.6494 122.668 74.1877 122.668 72.5148C123.295 68.5438 119.949 66.0366 116.608 66.0366Z" fill="black"/>
<path d="M10.8674 104.695C7.94198 104.695 5.64386 106.993 5.64386 109.918C5.64386 112.844 7.94198 115.144 10.8674 115.144C13.7929 115.144 16.091 112.844 16.091 109.918C16.091 106.993 13.7929 104.695 10.8674 104.695Z" fill="black"/>
<path d="M115.353 94.2456C112.428 94.2456 110.13 96.5437 110.13 99.4692C110.13 102.397 112.428 104.695 115.353 104.695C118.279 104.695 120.577 102.397 120.577 99.4692C120.577 96.5437 118.279 94.2456 115.353 94.2456Z" fill="black"/>
<path d="M9.6128 15.8817C13.1656 15.8817 16.0931 12.9563 16.0931 9.40351C16.0931 5.85074 13.1656 2.92529 9.6128 2.92529C6.06003 2.92529 3.13458 5.85074 3.13458 9.40351C3.13458 12.9563 6.06003 15.8817 9.6128 15.8817Z" fill="black"/>
<path d="M94.4569 15.8818C97.3823 15.8818 99.6805 13.5837 99.6805 10.6562C99.6805 7.73074 97.3823 5.43262 94.4569 5.43262C91.5315 5.43262 89.2333 7.73074 89.2333 10.6562C89.2333 13.5837 91.5315 15.8818 94.4569 15.8818Z" fill="black"/>
<path d="M97.1733 60.1838C97.1733 63.1092 99.4714 65.4073 102.397 65.4073C105.324 65.4073 107.622 63.1092 107.622 60.1838C107.622 57.2583 105.324 54.9602 102.397 54.9602C99.4714 54.9602 97.1733 57.2583 97.1733 60.1838Z" fill="black"/>
<path d="M28.004 36.7803C28.6292 36.7803 29.2566 36.153 29.2566 35.5277C29.2566 17.973 43.2585 3.55277 60.6042 2.92545V10.8674C47.4366 11.4947 36.9894 22.3601 36.9894 35.7347C36.9894 49.1094 47.4366 59.7677 60.6042 60.6041V69.7966C60.6042 70.4239 61.2294 71.0513 61.8567 71.0513C81.2914 71.0513 97.1733 55.1694 97.1733 35.7347C97.1733 35.1074 96.5459 34.4822 95.9186 34.4822C95.2934 34.4822 94.666 35.1074 94.666 35.7347C94.666 53.2895 80.6641 67.7097 63.3184 68.3349V60.1859C76.486 59.5586 86.9332 48.6912 86.9332 35.3165C86.9332 21.9439 76.486 11.2856 63.3184 10.4492V1.25465C63.3184 0.627325 62.6911 0 62.0659 0C42.6312 0 26.7493 15.8819 26.7493 35.3165C26.5423 36.153 27.1675 36.7803 28.004 36.7803ZM76.2769 35.3165C76.2769 43.2585 69.7987 49.7367 61.8567 49.7367C53.9148 49.7367 47.4366 43.2585 47.4366 35.3165C47.4366 27.3766 53.9148 20.8984 61.8567 20.8984C69.7987 20.8984 76.2769 27.3766 76.2769 35.3165Z" fill="black"/>
</g>
</svg>
