<?xml version="1.0" encoding="UTF-8"?>
<svg version="1.1" xmlns="http://www.w3.org/2000/svg" width="477" height="148">
<path d="M0 0 C8.67508159 7.25365775 14.08611617 16.4889212 18.6875 26.68359375 C19.17162354 27.740625 19.65574707 28.79765625 20.15454102 29.88671875 C26.70700345 44.45524865 32.60182376 59.31526333 38.55737305 74.13500977 C38.97815125 75.17847061 39.39892944 76.22193146 39.8324585 77.29701233 C40.62227413 79.2570537 41.40863912 81.21849085 42.19073486 83.18162537 C46.29528917 95.18292776 46.29528917 95.18292776 54.5 104.12109375 C58.09083585 104.05697168 60.51281544 103.85500065 63.43359375 101.68359375 C66.50018331 97.88079081 68.1635813 93.66197485 70.0625 89.18359375 C70.74022461 87.61460327 70.74022461 87.61460327 71.43164062 86.01391602 C72.79964721 82.83347769 74.15634087 79.6486169 75.50762939 76.46105957 C76.60978603 73.86222317 77.71473169 71.26458148 78.81982422 68.66699219 C81.38550788 62.63323804 83.94460121 56.59671043 86.5 50.55859375 C87.13375046 49.0612822 87.13375046 49.0612822 87.78030396 47.53372192 C89.00143317 44.64574288 90.21995626 41.75667972 91.4375 38.8671875 C91.80274277 38.0033847 92.16798553 37.13958191 92.54429626 36.24960327 C97.61889049 25.09377313 97.61889049 25.09377313 98.5 13.12109375 C96.70636089 10.31105915 95.48119065 8.61168907 92.5 7.12109375 C86.65841644 6.43990777 86.65841644 6.43990777 81.59667969 9.16967773 C78.05013961 12.22175671 76.46564178 15.60748082 74.6875 19.8671875 C74.19049843 21.00129311 74.19049843 21.00129311 73.68345642 22.15830994 C72.60808697 24.61916084 71.55435757 27.0886776 70.5 29.55859375 C69.38415563 32.12344389 68.26247176 34.68568682 67.1403656 37.24780273 C66.38092528 38.9825476 65.62325258 40.71806733 64.86732483 42.4543457 C61.19821753 50.86822271 57.34412599 59.1904002 53.4375 67.49609375 C52.83000835 68.79090151 52.22258433 70.085741 51.61523438 71.38061523 C50.24623301 74.29541356 48.87473476 77.20899632 47.5 80.12109375 C46.51 80.12109375 45.52 80.12109375 44.5 80.12109375 C43.11775212 77.11235439 41.77456987 74.08764852 40.4375 71.05859375 C40.04755859 70.21103516 39.65761719 69.36347656 39.25585938 68.49023438 C38.70961914 67.23823242 38.70961914 67.23823242 38.15234375 65.9609375 C37.81195068 65.20159912 37.47155762 64.44226074 37.12084961 63.65991211 C35.58424717 57.37633808 38.20809116 51.90531388 40.8515625 46.34375 C41.18868256 45.61473984 41.52580261 44.88572968 41.87313843 44.1346283 C42.94850881 41.81350992 44.03620201 39.49843929 45.125 37.18359375 C46.1854156 34.90901929 47.24317899 32.63322998 48.30015564 30.35705566 C49.00028384 28.84992823 49.7019107 27.34349608 50.40504456 25.83776855 C53.09760254 20.05333338 55.67065843 14.22230888 58.14602661 8.34156799 C62.3036825 -1.37585556 67.90585859 -7.37914143 77.5 -11.87890625 C85.6524724 -14.6301547 95.64152739 -13.767543 103.32421875 -10.12109375 C111.3811624 -5.52125877 115.2071532 0.4429557 118.5 9.12109375 C122.16226312 22.62441028 114.55977304 36.36183277 109.3125 48.49609375 C108.2398223 50.99971294 107.16963173 53.50438689 106.09942627 56.00906372 C105.36028843 57.73796425 104.62000208 59.46637419 103.87860107 61.19430542 C101.23336477 67.36788662 98.65214231 73.56573228 96.09765625 79.77734375 C95.03325534 82.35308233 93.96797103 84.92845383 92.9024353 87.50372314 C92.22394369 89.14962002 91.54908452 90.79701955 90.87808228 92.44598389 C85.94184691 104.56376096 81.27143389 115.81231921 68.9375 121.87109375 C60.07251843 125.09472341 52.82621304 124.83856524 44.109375 121.37109375 C31.07633968 115.12772354 26.79325524 100.51034414 21.89477539 87.92645264 C20.85735585 85.26329956 19.80837009 82.60497625 18.75585938 79.94775391 C17.33696283 76.3654226 15.92061501 72.7821079 14.50683594 69.19775391 C3.10196689 34.28583336 3.10196689 34.28583336 -22.05078125 10.12109375 C-33.25911366 5.54480492 -46.38193069 5.41202954 -57.69140625 9.80078125 C-71.985119 16.52021784 -79.74237243 25.5069881 -85.5 40.12109375 C-86.17330443 42.11886891 -86.84091878 44.11858123 -87.5 46.12109375 C-86.06633087 46.10777008 -86.06633087 46.10777008 -84.60369873 46.09417725 C-75.59873141 46.01310931 -66.59383808 45.95313705 -57.58858871 45.91384506 C-52.95880684 45.89296549 -48.32931943 45.86464126 -43.69970703 45.81933594 C-39.23228306 45.77589112 -34.76514241 45.75195943 -30.2975235 45.74158478 C-28.59263905 45.73419092 -26.8877702 45.71975243 -25.18300629 45.69817352 C-22.79581636 45.66915681 -20.4097987 45.66513689 -18.02246094 45.66699219 C-16.96402229 45.64542053 -16.96402229 45.64542053 -15.88420105 45.62341309 C-12.52195942 45.65170837 -10.78836079 45.89957025 -8.08843994 47.97369385 C-5.98547466 50.81667665 -5.56941961 52.5806936 -5.5 56.12109375 C-7.48591763 62.39241259 -7.48591763 62.39241259 -10.15460205 64.31002808 C-13.38252835 65.42628224 -16.46608577 65.38344996 -19.83886719 65.34814453 C-20.57096909 65.34843658 -21.30307098 65.34872864 -22.05735779 65.34902954 C-24.47065189 65.34763922 -26.88363501 65.33209223 -29.296875 65.31640625 C-30.97267488 65.31267506 -32.64847694 65.30982859 -34.32427979 65.30783081 C-38.73018439 65.30020272 -43.13595667 65.28056131 -47.54180908 65.25842285 C-52.03957326 65.23794668 -56.53735887 65.2288253 -61.03515625 65.21875 C-69.8568289 65.19731464 -78.67840344 65.16318862 -87.5 65.12109375 C-86.57776551 67.520035 -85.64693402 69.91502549 -84.7109375 72.30859375 C-84.45304443 72.98212891 -84.19515137 73.65566406 -83.92944336 74.34960938 C-81.67039285 80.09355175 -78.7754855 84.63548824 -74.5 89.12109375 C-73.91734375 89.74371094 -73.3346875 90.36632812 -72.734375 91.0078125 C-62.02546073 101.37926099 -48.0801002 104.46097808 -33.67358398 104.35595703 C-16.89399573 103.97384175 1.60944926 100.37059902 14.02734375 88.2578125 C15.5 87.12109375 15.5 87.12109375 18.5 87.12109375 C19.53712685 89.51099476 20.55468019 91.90636249 21.5625 94.30859375 C22.00432617 95.31889648 22.00432617 95.31889648 22.45507812 96.34960938 C23.65547122 99.24467506 24.49652164 101.71412621 24.5234375 104.86328125 C21.94017473 110.562235 13.87929539 113.72843699 8.28320312 116.03466797 C-0.05483412 119.16763056 -8.65617716 121.9093956 -17.5 123.12109375 C-18.24507813 123.23066406 -18.99015625 123.34023437 -19.7578125 123.453125 C-40.92542481 126.072879 -62.78786565 123.90852724 -80.5 111.12109375 C-87.78215289 105.29335142 -93.69171275 99.12228566 -98.5 91.12109375 C-98.96019531 90.36570312 -99.42039063 89.6103125 -99.89453125 88.83203125 C-108.6255426 73.05817993 -110.07614355 53.48189723 -105.9375 36.12109375 C-100.26431722 17.95103982 -88.62804824 2.91001445 -71.8125 -6.12890625 C-47.84276961 -17.24794468 -21.3605349 -16.05377701 0 0 Z " fill="#FECF1D" transform="translate(354.5,22.87890625)"/>
<path d="M0 0 C1.2065625 0.0309375 1.2065625 0.0309375 2.4375 0.0625 C4.86810158 5.4389907 5.11117365 10.23820752 4.4375 16.0625 C2.875 19.6875 2.875 19.6875 0.4375 22.0625 C-4.12255684 23.36537338 -6.49025266 23.30925715 -10.5625 21.0625 C-12.45917109 21.34802357 -12.45917109 21.34802357 -14.5625 22.0625 C-18.47221315 22.85892305 -20.87451862 23.29641367 -24.6875 22 C-28.2669309 20.83279427 -29.18414254 21.66171764 -32.5625 23.0625 C-36.02732524 22.81935437 -38.67372529 22.58530865 -41.6875 20.8125 C-42.30625 20.565 -42.925 20.3175 -43.5625 20.0625 C-44.305 20.536875 -45.0475 21.01125 -45.8125 21.5 C-49.76519626 23.74585015 -52.15935033 22.88342621 -56.5625 22.0625 C-56.73265625 22.66578125 -56.9028125 23.2690625 -57.078125 23.890625 C-59.70749674 32.56195735 -59.70749674 32.56195735 -63.5625 35.0625 C-67.18301519 36.06280729 -70.34808741 36.37388784 -74 35.4375 C-76.15985914 33.53682396 -76.26818416 31.85850049 -76.5625 29.0625 C-75.95921875 28.97613281 -75.3559375 28.88976562 -74.734375 28.80078125 C-70.75757125 28.10163349 -68.15449944 27.55342636 -65 24.9375 C-62.15467374 19.24684749 -63.58679628 13.01865481 -64.5390625 6.9453125 C-64.54679687 6.32398438 -64.55453125 5.70265625 -64.5625 5.0625 C-63.9025 4.4025 -63.2425 3.7425 -62.5625 3.0625 C-60.609375 3.12109375 -60.609375 3.12109375 -58.5625 4.0625 C-57.078125 6.34765625 -57.078125 6.34765625 -55.8125 9.125 C-55.38453125 10.04410156 -54.9565625 10.96320312 -54.515625 11.91015625 C-54.20109375 12.62042969 -53.8865625 13.33070312 -53.5625 14.0625 C-51.9125 14.0625 -50.2625 14.0625 -48.5625 14.0625 C-48.36914062 13.44761719 -48.17578125 12.83273438 -47.9765625 12.19921875 C-47.71617188 11.39097656 -47.45578125 10.58273438 -47.1875 9.75 C-46.80464844 8.54923828 -46.80464844 8.54923828 -46.4140625 7.32421875 C-45.5625 5.0625 -45.5625 5.0625 -43.5625 2.0625 C-39.6875 2.9375 -39.6875 2.9375 -38.5625 4.0625 C-38.24152249 6.38067089 -38.05029044 8.70029357 -37.84375 11.03125 C-37.77184163 13.05430593 -37.77184163 13.05430593 -36.5625 14.0625 C-34.89632885 14.10313832 -33.22861905 14.105221 -31.5625 14.0625 C-30.2425 11.0925 -28.9225 8.1225 -27.5625 5.0625 C-25.9125 5.0625 -24.2625 5.0625 -22.5625 5.0625 C-21.9025 8.0325 -21.2425 11.0025 -20.5625 14.0625 C-19.2425 13.7325 -17.9225 13.4025 -16.5625 13.0625 C-15.9025 10.4225 -15.2425 7.7825 -14.5625 5.0625 C-10.5625 4.0625 -10.5625 4.0625 -8.5625 5.0625 C-7.9296875 7.12890625 -7.9296875 7.12890625 -7.4375 9.625 C-7.26992187 10.45128906 -7.10234375 11.27757812 -6.9296875 12.12890625 C-6.80851562 12.76699219 -6.68734375 13.40507813 -6.5625 14.0625 C-5.2425 14.3925 -3.9225 14.7225 -2.5625 15.0625 C-2.64628906 14.06347656 -2.73007813 13.06445312 -2.81640625 12.03515625 C-2.96916016 10.09962891 -2.96916016 10.09962891 -3.125 8.125 C-3.28162109 6.19333984 -3.28162109 6.19333984 -3.44140625 4.22265625 C-3.50134766 2.65837891 -3.50134766 2.65837891 -3.5625 1.0625 C-2.5625 0.0625 -2.5625 0.0625 0 0 Z " fill="#FECF1D" transform="translate(79.5625,46.9375)"/>
<path d="M0 0 C3.85926654 2.19276508 5.92643585 4.76553774 7.49609375 8.9453125 C8.79794755 14.25364658 8.71005343 19.77095077 6.875 24.9375 C4.58928191 28.67083954 3.02294315 29.37390382 -1 31 C-4.6484375 31.51171875 -4.6484375 31.51171875 -8.375 31.6875 C-10.24285156 31.78611328 -10.24285156 31.78611328 -12.1484375 31.88671875 C-13.55996094 31.94279297 -13.55996094 31.94279297 -15 32 C-15.061875 33.0725 -15.12375 34.145 -15.1875 35.25 C-16 39 -16 39 -18.25 41.3125 C-25.04827809 45.48417065 -31.15620995 45.63224504 -39 45 C-43.73922967 43.42025678 -46.50212998 41.34814411 -49 37 C-50.19053461 32.19708982 -50.57464298 27.64793913 -48.875 22.9375 C-47 20 -47 20 -44.3828125 19.31640625 C-43.59648438 19.21199219 -42.81015625 19.10757813 -42 19 C-42.04640625 19.89203125 -42.0928125 20.7840625 -42.140625 21.703125 C-42.17671875 22.87359375 -42.2128125 24.0440625 -42.25 25.25 C-42.29640625 26.41015625 -42.3428125 27.5703125 -42.390625 28.765625 C-42.26353457 32.04974737 -42.26353457 32.04974737 -40.25390625 34.3671875 C-36.67797853 36.95772093 -33.33365118 37.09452595 -29 37 C-26.51664909 36.54230211 -24.38702568 35.86339227 -22 35 C-23.76878728 31.78618694 -23.76878728 31.78618694 -27.0625 30.5625 C-30 29 -30 29 -30.9375 26.9375 C-31 25 -31 25 -30 23 C-28.79670044 23.00785522 -28.79670044 23.00785522 -27.5690918 23.01586914 C-23.94190247 23.03662897 -20.31472563 23.04965702 -16.6875 23.0625 C-14.79354492 23.07506836 -14.79354492 23.07506836 -12.86132812 23.08789062 C-11.65283203 23.09111328 -10.44433594 23.09433594 -9.19921875 23.09765625 C-7.52605591 23.10551147 -7.52605591 23.10551147 -5.8190918 23.11352539 C-2.91947938 23.12749254 -2.91947938 23.12749254 0 22 C-0.67546875 21.98582031 -1.3509375 21.97164062 -2.046875 21.95703125 C-9.27375247 21.57062306 -9.27375247 21.57062306 -12.625 18.9375 C-14.41077198 15.12244168 -14.69704585 12.1402844 -14 8 C-11.04062511 1.3414065 -7.26888702 -0.89267034 0 0 Z M-4 7 C-5.32 8.32 -6.64 9.64 -8 11 C-7.67 11.99 -7.34 12.98 -7 14 C-4.69 14 -2.38 14 0 14 C-0.27034634 11.56282742 -0.27034634 11.56282742 -1 9 C-1.99 8.34 -2.98 7.68 -4 7 Z " fill="#FECF1D" transform="translate(148,38)"/>
<path d="M0 0 C2.0625 1.8125 2.0625 1.8125 2.4375 4.4375 C2.0625 6.8125 2.0625 6.8125 1.0625 7.8125 C-0.37989308 7.61647498 -1.81697227 7.38064652 -3.25 7.125 C-7.13303075 6.58787655 -7.13303075 6.58787655 -10.5 8.625 C-12.1205593 10.65481034 -12.1205593 10.65481034 -11.9375 12.8125 C-11.17824219 12.99425781 -10.41898438 13.17601562 -9.63671875 13.36328125 C-8.64285156 13.61464844 -7.64898437 13.86601563 -6.625 14.125 C-5.63886719 14.36863281 -4.65273437 14.61226562 -3.63671875 14.86328125 C-0.8826571 15.83178629 0.37072036 16.46311831 2.0625 18.8125 C2.71589247 23.79461755 2.6785623 25.79214682 0.0625 30.125 C-4.37666872 34.68851518 -9.72440763 35.9584459 -15.9375 36.1875 C-22.10750267 35.96917683 -26.99951491 34.80017702 -31.375 30.3125 C-34.31066603 25.61543436 -34.4878843 21.20626611 -33.9375 15.8125 C-32.4375 12.25 -32.4375 12.25 -30.9375 9.8125 C-29.2875 9.8125 -27.6375 9.8125 -25.9375 9.8125 C-25.97230469 11.16794922 -25.97230469 11.16794922 -26.0078125 12.55078125 C-26.02585938 13.73027344 -26.04390625 14.90976562 -26.0625 16.125 C-26.08570313 17.29675781 -26.10890625 18.46851563 -26.1328125 19.67578125 C-26.19070618 22.97643661 -26.19070618 22.97643661 -23.9375 25.8125 C-18.88048932 28.22060032 -15.27723547 27.84599719 -9.9375 26.8125 C-7.55009459 25.87463652 -7.55009459 25.87463652 -5.9375 24.8125 C-5.9375 24.1525 -5.9375 23.4925 -5.9375 22.8125 C-7.07638672 22.57466797 -7.07638672 22.57466797 -8.23828125 22.33203125 C-16.29027737 20.44174422 -16.29027737 20.44174422 -19.1875 17.625 C-20.21701614 13.76431449 -20.23438424 10.56141675 -18.9375 6.8125 C-14.31535808 -0.3759655 -8.50182681 -3.43690871 0 0 Z " fill="#FECF1D" transform="translate(203.9375,42.1875)"/>
<path d="M0 0 C2.34483893 3.4390971 3.01080781 5.3839551 2.9375 9.5625 C1.92269449 13.28345352 0.39146743 15.05052351 -2 18 C-2 20.34589981 -1.21053853 21.65971099 0.0078125 23.62890625 C3.03942723 28.53673009 3.03942723 28.53673009 2.75 31.9375 C2.5025 32.618125 2.255 33.29875 2 34 C-0.25 34.37109375 -0.25 34.37109375 -3 34 C-5.0625 31.41015625 -5.0625 31.41015625 -7 28.0625 C-9.42996645 23.46524652 -9.42996645 23.46524652 -13.75 21.12109375 C-14.4925 21.08113281 -15.235 21.04117188 -16 21 C-15.97679687 21.77085938 -15.95359375 22.54171875 -15.9296875 23.3359375 C-15.90261719 24.84027344 -15.90261719 24.84027344 -15.875 26.375 C-15.85179687 27.37273437 -15.82859375 28.37046875 -15.8046875 29.3984375 C-16 32 -16 32 -18 34 C-19.32 34 -20.64 34 -22 34 C-23.38038209 31.23923582 -23.19904129 28.90620025 -23.28125 25.8203125 C-23.31863281 24.58152344 -23.35601562 23.34273437 -23.39453125 22.06640625 C-23.42933594 20.76574219 -23.46414062 19.46507812 -23.5 18.125 C-23.56891344 15.56499327 -23.6416644 13.00508619 -23.71875 10.4453125 C-23.74904297 9.30594238 -23.77933594 8.16657227 -23.81054688 6.99267578 C-23.96851464 4.49735515 -24.28060356 2.38172649 -25 0 C-17.77876806 -4.88495102 -7.02284953 -5.99007754 0 0 Z M-16 4 C-16.07205511 5.68608966 -16.08386068 7.37500659 -16.0625 9.0625 C-16.05347656 9.98160156 -16.04445312 10.90070313 -16.03515625 11.84765625 C-16.02355469 12.55792969 -16.01195312 13.26820312 -16 14 C-12.71000718 14.41831404 -12.71000718 14.41831404 -9 14 C-6.06026719 11.64581624 -6.06026719 11.64581624 -4 9 C-5.11854586 5.27385847 -5.11854586 5.27385847 -8 3 C-12.31493623 2.46061486 -12.31493623 2.46061486 -16 4 Z " fill="#FECF1D" transform="translate(191,103)"/>
<path d="M0 0 C0.62414795 0.18667236 1.2482959 0.37334473 1.89135742 0.56567383 C1.91600752 5.67431279 1.93419349 10.78291742 1.94628906 15.89160156 C1.95132946 17.63086551 1.95816172 19.37012519 1.96679688 21.109375 C1.97887534 23.6039332 1.9845885 26.09843556 1.98901367 28.59301758 C1.99417496 29.37531235 1.99933624 30.15760712 2.00465393 30.96360779 C2.00484968 32.83134497 1.95335437 34.69896587 1.89135742 36.56567383 C0.89135742 37.56567383 0.89135742 37.56567383 -1.67114258 37.62817383 C-2.47551758 37.60754883 -3.27989258 37.58692383 -4.10864258 37.56567383 C-5.61021132 34.56253635 -5.20145462 31.7749986 -5.17114258 28.44067383 C-5.16211914 27.1593457 -5.1530957 25.87801758 -5.14379883 24.55786133 C-5.13219727 23.57043945 -5.1205957 22.58301758 -5.10864258 21.56567383 C-9.39864258 21.56567383 -13.68864258 21.56567383 -18.10864258 21.56567383 C-18.09704102 22.63688477 -18.08543945 23.7080957 -18.07348633 24.81176758 C-18.06410959 26.20890126 -18.05500927 27.60603682 -18.04614258 29.00317383 C-18.03776367 29.71022461 -18.02938477 30.41727539 -18.02075195 31.14575195 C-18.0121067 32.95260942 -18.05644246 34.75954986 -18.10864258 36.56567383 C-19.10864258 37.56567383 -19.10864258 37.56567383 -21.60864258 37.69067383 C-24.10864258 37.56567383 -24.10864258 37.56567383 -25.10864258 36.56567383 C-25.20955733 33.98377937 -25.24835756 31.42920883 -25.24145508 28.84692383 C-25.2424118 28.07384888 -25.24336853 27.30077393 -25.24435425 26.50427246 C-25.24503599 24.86669839 -25.24318215 23.22912164 -25.23901367 21.59155273 C-25.23366529 19.07635462 -25.23895884 16.5613351 -25.24536133 14.04614258 C-25.24470055 12.4589026 -25.24341938 10.87166273 -25.24145508 9.28442383 C-25.24347931 8.52713989 -25.24550354 7.76985596 -25.24758911 6.98962402 C-25.2235939 1.68062515 -25.2235939 1.68062515 -24.10864258 0.56567383 C-21.60864258 0.44067383 -21.60864258 0.44067383 -19.10864258 0.56567383 C-18.10864258 1.56567383 -18.10864258 1.56567383 -18.01098633 4.72583008 C-18.02258789 6.01360352 -18.03418945 7.30137695 -18.04614258 8.62817383 C-18.05516602 9.91852539 -18.06418945 11.20887695 -18.07348633 12.53833008 C-18.08508789 13.53735352 -18.09668945 14.53637695 -18.10864258 15.56567383 C-11.67364258 15.07067383 -11.67364258 15.07067383 -5.10864258 14.56567383 C-5.17051758 12.64754883 -5.23239258 10.72942383 -5.29614258 8.75317383 C-5.47736404 3.13530853 -5.47736404 3.13530853 -3.84692383 0.61645508 C-2.10864258 -0.43432617 -2.10864258 -0.43432617 0 0 Z " fill="#FECF1E" transform="translate(129.108642578125,99.434326171875)"/>
<path d="M0 0 C3.77136474 1.54785654 4.35867606 3.82402001 5.99609375 7.41796875 C7.86418858 12.16886173 9.56615038 16.96453524 11.2109375 21.796875 C11.68249268 23.17601074 11.68249268 23.17601074 12.16357422 24.58300781 C12.45377441 25.4644043 12.74397461 26.34580078 13.04296875 27.25390625 C13.30440674 28.04385986 13.56584473 28.83381348 13.83520508 29.64770508 C14.44774922 32.18895345 14.56760277 34.37956655 14.3984375 36.984375 C13.3984375 37.984375 13.3984375 37.984375 10.8359375 38.046875 C10.0315625 38.02625 9.2271875 38.005625 8.3984375 37.984375 C6.36408219 34.25472361 5.3984375 32.31532458 5.3984375 27.984375 C4.4084375 28.231875 4.4084375 28.231875 3.3984375 28.484375 C-0.33256044 29.10620799 -3.82029628 29.04846426 -7.6015625 28.984375 C-7.7253125 29.9125 -7.8490625 30.840625 -7.9765625 31.796875 C-8.6015625 34.984375 -8.6015625 34.984375 -10.6015625 37.984375 C-12.2515625 37.654375 -13.9015625 37.324375 -15.6015625 36.984375 C-16.32051075 29.74202861 -13.7390106 23.55133239 -11.3515625 16.796875 C-10.95582031 15.62189453 -10.56007812 14.44691406 -10.15234375 13.23632812 C-9.75917969 12.10775391 -9.36601562 10.97917969 -8.9609375 9.81640625 C-8.60483398 8.79264893 -8.24873047 7.7688916 -7.88183594 6.71411133 C-6.1078147 2.93163011 -4.41614331 -0.02652338 0 0 Z M-1.6015625 9.984375 C-2.10716158 11.41991525 -2.6058374 12.8578952 -3.1015625 14.296875 C-3.38 15.09738281 -3.6584375 15.89789063 -3.9453125 16.72265625 C-4.74089357 19.07206922 -4.74089357 19.07206922 -4.6015625 21.984375 C-2.2915625 21.984375 0.0184375 21.984375 2.3984375 21.984375 C1.96296893 15.37719095 1.96296893 15.37719095 -1.6015625 9.984375 Z " fill="#FECF1D" transform="translate(150.6015625,99.015625)"/>
<path d="M0 0 C1.9375 1.8125 1.9375 1.8125 2.25 5 C2.146875 5.928125 2.04375 6.85625 1.9375 7.8125 C-1.77849191 8.01336443 -2.83458445 7.9644437 -6.0625 5.8125 C-9.18771833 5.64550768 -9.18771833 5.64550768 -12.0625 5.8125 C-12.3925 7.4625 -12.7225 9.1125 -13.0625 10.8125 C-12.25425781 11.10382813 -11.44601563 11.39515625 -10.61328125 11.6953125 C0.99676655 16.14886522 0.99676655 16.14886522 3.9375 21.8125 C4.33619109 26.21343629 3.7751275 29.60259362 1.25 33.25 C-3.71165274 36.60246807 -8.04017809 37.26255446 -13.87109375 36.4140625 C-17.70263533 35.36226677 -19.44943632 33.82757348 -22.0625 30.8125 C-22.4375 27.5 -22.4375 27.5 -22.0625 24.8125 C-19.875 24.5625 -19.875 24.5625 -17.0625 24.8125 C-16.258125 25.4725 -15.45375 26.1325 -14.625 26.8125 C-11.5231593 29.23344884 -9.89891278 29.16937561 -6.0625 28.8125 C-5.4025 27.4925 -4.7425 26.1725 -4.0625 24.8125 C-6.43386171 22.06016542 -8.58827922 21.09697202 -12 19.9375 C-16.2694222 18.27959299 -18.93266018 17.07217965 -21.0625 12.8125 C-21.87950882 8.53624107 -21.59133142 5.71347205 -19.375 1.9375 C-13.50134604 -3.45991175 -7.10066378 -2.75331861 0 0 Z " fill="#FECF1D" transform="translate(96.0625,101.1875)"/>
<path d="M0 0 C0.79921875 0.00644531 1.5984375 0.01289062 2.421875 0.01953125 C3.246875 0.03628906 4.071875 0.05304688 4.921875 0.0703125 C5.76234375 0.07933594 6.6028125 0.08835937 7.46875 0.09765625 C9.53658104 0.12115433 11.60426495 0.15702342 13.671875 0.1953125 C14.796875 3.9453125 14.796875 3.9453125 13.671875 6.1953125 C8.721875 6.1953125 3.771875 6.1953125 -1.328125 6.1953125 C-1.328125 9.1653125 -1.328125 12.1353125 -1.328125 15.1953125 C2.631875 15.1953125 6.591875 15.1953125 10.671875 15.1953125 C11.001875 16.8453125 11.331875 18.4953125 11.671875 20.1953125 C10.671875 21.1953125 10.671875 21.1953125 7.94921875 21.29296875 C6.84707031 21.28136719 5.74492187 21.26976563 4.609375 21.2578125 C2.95228516 21.24427734 2.95228516 21.24427734 1.26171875 21.23046875 C0.40707031 21.21886719 -0.44757812 21.20726563 -1.328125 21.1953125 C-0.998125 24.1653125 -0.668125 27.1353125 -0.328125 30.1953125 C4.621875 30.1953125 9.571875 30.1953125 14.671875 30.1953125 C14.671875 31.8453125 14.671875 33.4953125 14.671875 35.1953125 C10.38692861 37.27988102 6.78170557 37.46399033 2.046875 37.4453125 C0.07847656 37.45304687 0.07847656 37.45304687 -1.9296875 37.4609375 C-5.328125 37.1953125 -5.328125 37.1953125 -8.328125 35.1953125 C-10.22612401 29.50131548 -9.45691967 23.15960206 -9.328125 17.1953125 C-9.31555664 16.49003418 -9.30298828 15.78475586 -9.29003906 15.05810547 C-9.24346725 12.99801562 -9.16621086 10.94150491 -9.078125 8.8828125 C-9.03171875 7.64917969 -8.9853125 6.41554688 -8.9375 5.14453125 C-8.328125 2.1953125 -8.328125 2.1953125 -6.56054688 1.02319336 C-4.19352045 0.14539517 -2.51340168 -0.03590574 0 0 Z " fill="#FECF1D" transform="translate(14.328125,99.8046875)"/>
<path d="M0 0 C0.84755859 0.00322266 1.69511719 0.00644531 2.56835938 0.00976562 C3.8899707 0.02233398 3.8899707 0.02233398 5.23828125 0.03515625 C6.57729492 0.04192383 6.57729492 0.04192383 7.94335938 0.04882812 C10.14590112 0.06060642 12.34830724 0.07705461 14.55078125 0.09765625 C14.59350225 1.7637753 14.59141957 3.4314851 14.55078125 5.09765625 C12.60987299 7.03856451 9.07784223 6.4968506 6.48828125 6.66015625 C5.19792969 6.74394531 3.90757812 6.82773438 2.578125 6.9140625 C1.57910156 6.97464844 0.58007812 7.03523438 -0.44921875 7.09765625 C-0.77921875 9.73765625 -1.10921875 12.37765625 -1.44921875 15.09765625 C2.84078125 15.09765625 7.13078125 15.09765625 11.55078125 15.09765625 C11.88078125 16.74765625 12.21078125 18.39765625 12.55078125 20.09765625 C11.55078125 21.09765625 11.55078125 21.09765625 8.609375 21.1953125 C7.41441406 21.18371094 6.21945313 21.17210938 4.98828125 21.16015625 C3.19197266 21.14662109 3.19197266 21.14662109 1.359375 21.1328125 C0.43253906 21.12121094 -0.49429688 21.10960938 -1.44921875 21.09765625 C-1.11921875 24.06765625 -0.78921875 27.03765625 -0.44921875 30.09765625 C4.50078125 30.09765625 9.45078125 30.09765625 14.55078125 30.09765625 C14.88078125 31.74765625 15.21078125 33.39765625 15.55078125 35.09765625 C12.60180328 38.04663422 3.7373489 37.23423481 -0.32421875 37.34765625 C-1.22914063 37.3734375 -2.1340625 37.39921875 -3.06640625 37.42578125 C-5.44921875 37.09765625 -5.44921875 37.09765625 -7.07763672 35.99902344 C-9.13082133 33.15277891 -8.80391612 30.82222319 -8.77734375 27.34765625 C-8.77547058 26.69313477 -8.77359741 26.03861328 -8.77166748 25.36425781 C-8.76495409 23.98236994 -8.75105349 22.60050085 -8.73046875 21.21875 C-8.6993312 19.10528871 -8.68949785 16.99257416 -8.68359375 14.87890625 C-8.61337039 4.59011118 -8.61337039 4.59011118 -7.44921875 1.09765625 C-4.6251011 0.1562837 -2.92003843 -0.01959757 0 0 Z " fill="#FECF1D" transform="translate(206.44921875,99.90234375)"/>
<path d="M0 0 C0.8971875 0.309375 0.8971875 0.309375 1.8125 0.625 C2.0318465 5.72865083 1.42874915 9.5683108 -0.3046875 14.36328125 C-0.74683594 15.59498047 -1.18898438 16.82667969 -1.64453125 18.09570312 C-1.87736816 18.72613525 -2.11020508 19.35656738 -2.35009766 20.00610352 C-3.06547142 21.94555583 -3.76243379 23.8909129 -4.45703125 25.83789062 C-7.90796604 35.34546604 -7.90796604 35.34546604 -10.1875 37.625 C-13.125 38 -13.125 38 -16.1875 37.625 C-20.3250116 33.27539199 -21.53440908 27.22032717 -23.31396484 21.63500977 C-23.93591453 19.69245196 -24.57846425 17.75754419 -25.22265625 15.82226562 C-25.61839844 14.59314453 -26.01414063 13.36402344 -26.421875 12.09765625 C-26.78506836 10.97625244 -27.14826172 9.85484863 -27.52246094 8.69946289 C-28.20217231 5.55717018 -28.07759481 3.6808735 -27.1875 0.625 C-25.5375 0.625 -23.8875 0.625 -22.1875 0.625 C-19.61469668 5.37827299 -17.98364249 10.08638627 -16.5 15.25 C-16.27505859 16.00023438 -16.05011719 16.75046875 -15.81835938 17.5234375 C-14.76190017 21.14558333 -14.1875 23.77913712 -14.1875 27.625 C-13.5275 27.625 -12.8675 27.625 -12.1875 27.625 C-12.10113281 27.08875 -12.01476562 26.5525 -11.92578125 26 C-10.89684211 20.26059638 -9.43191274 14.70170358 -7.75 9.125 C-7.54479736 8.41859375 -7.33959473 7.7121875 -7.12817383 6.984375 C-4.71469287 -0.80823306 -4.71469287 -0.80823306 0 0 Z " fill="#FECF1D" transform="translate(58.1875,99.375)"/>
<path d="M0 0 C2.5 0.125 2.5 0.125 3.5 1.125 C3.60081087 3.47731699 3.63972939 5.79961947 3.6328125 8.15234375 C3.63376923 8.85645889 3.63472595 9.56057404 3.63571167 10.286026 C3.63639341 11.77816863 3.63453952 13.27031421 3.63037109 14.76245117 C3.62503063 17.04938418 3.6303121 19.33612008 3.63671875 21.62304688 C3.63605781 23.07031293 3.63477632 24.51757887 3.6328125 25.96484375 C3.63483673 26.65134506 3.63686096 27.33784637 3.63894653 28.04515076 C3.61495764 32.89508473 3.61495764 32.89508473 2.5 35.125 C0.85 35.125 -0.8 35.125 -2.5 35.125 C-3.97360305 32.17779391 -3.64233596 29.19464632 -3.6328125 25.96484375 C-3.63376923 25.25977188 -3.63472595 24.55470001 -3.63571167 23.82826233 C-3.63639229 22.33789989 -3.63454621 20.84753448 -3.63037109 19.35717773 C-3.62501318 17.06812942 -3.63032409 14.77927663 -3.63671875 12.49023438 C-3.6360581 11.0442704 -3.63477722 9.59830654 -3.6328125 8.15234375 C-3.63483673 7.46381821 -3.63686096 6.77529266 -3.63894653 6.06590271 C-3.60969119 0.18048456 -3.60969119 0.18048456 0 0 Z " fill="#FECF1D" transform="translate(214.5,34.875)"/>
<path d="M0 0 C1.98 0 3.96 0 6 0 C6.12375 1.423125 6.12375 1.423125 6.25 2.875 C6.65074923 6.10461791 6.65074923 6.10461791 9.0625 7.375 C9.701875 7.58125 10.34125 7.7875 11 8 C11.04254356 9.99954746 11.04080783 12.00041636 11 14 C10 15 10 15 7.625 15.0625 C6.75875 15.041875 5.8925 15.02125 5 15 C3.14536523 15 1.28993212 15.03463746 -0.5625 15.125 C-3 15 -3 15 -5 13 C-4.8125 10.5 -4.8125 10.5 -4 8 C-3.01 7.34 -2.02 6.68 -1 6 C-0.26656572 2.93443402 -0.26656572 2.93443402 0 0 Z M2 8 C2.66 8.66 3.32 9.32 4 10 C4 9.34 4 8.68 4 8 C3.34 8 2.68 8 2 8 Z " fill="#FECF1D" transform="translate(63,31)"/>
<path d="M0 0 C1.4540625 0.0309375 1.4540625 0.0309375 2.9375 0.0625 C3.31883299 2.0539056 3.65075582 4.05529077 3.9375 6.0625 C3.6075 6.3925 3.2775 6.7225 2.9375 7.0625 C5.4125 8.0525 5.4125 8.0525 7.9375 9.0625 C7.980221 10.72861905 7.97813832 12.39632885 7.9375 14.0625 C6.9375 15.0625 6.9375 15.0625 4 15.125 C2.4840625 15.0940625 2.4840625 15.0940625 0.9375 15.0625 C-1.27331851 14.95709074 -1.27331851 14.95709074 -4.0625 16.0625 C-6.25 15.125 -6.25 15.125 -8.0625 14.0625 C-7.7325 12.0825 -7.4025 10.1025 -7.0625 8.0625 C-5.7425 7.7325 -4.4225 7.4025 -3.0625 7.0625 C-3.3925 6.7325 -3.7225 6.4025 -4.0625 6.0625 C-4.1875 3.5625 -4.1875 3.5625 -4.0625 1.0625 C-3.0625 0.0625 -3.0625 0.0625 0 0 Z M-1.0625 8.0625 C-0.4025 8.7225 0.2575 9.3825 0.9375 10.0625 C0.9375 9.4025 0.9375 8.7425 0.9375 8.0625 C0.2775 8.0625 -0.3825 8.0625 -1.0625 8.0625 Z " fill="#FECF1D" transform="translate(144.0625,18.9375)"/>
<path d="M0 0 C1.093125 0.0825 2.18625 0.165 3.3125 0.25 C4.375 2.125 4.375 2.125 5.3125 4.25 C4.9825 4.91 4.6525 5.57 4.3125 6.25 C1.3425 5.755 1.3425 5.755 -1.6875 5.25 C-1.3575 5.91 -1.0275 6.57 -0.6875 7.25 C1.63406597 7.65729228 3.9693787 7.99438677 6.3125 8.25 C6.3125 9.57 6.3125 10.89 6.3125 12.25 C1.439239 13.8412689 -2.49540596 14.46192221 -7.6875 14.25 C-7.59981752 12.6656683 -7.49162671 11.08246433 -7.375 9.5 C-7.28798828 8.17742188 -7.28798828 8.17742188 -7.19921875 6.828125 C-6.24625948 2.02695615 -4.93053179 0.33427334 0 0 Z " fill="#FECF1D" transform="translate(214.6875,18.75)"/>
<path d="M0 0 C0.86625 0.020625 1.7325 0.04125 2.625 0.0625 C4.47963477 0.0625 6.33506788 0.02786254 8.1875 -0.0625 C10.625 0.0625 10.625 0.0625 12.625 2.0625 C12.25 4.6875 12.25 4.6875 11.625 7.0625 C8.33803767 7.86203138 6.91476808 8.15908936 3.625 7.0625 C1.95678677 7.38800502 0.29000443 7.72096063 -1.375 8.0625 C-2.035 7.7325 -2.695 7.4025 -3.375 7.0625 C-3.41754356 5.06295254 -3.41580783 3.06208364 -3.375 1.0625 C-2.375 0.0625 -2.375 0.0625 0 0 Z " fill="#FECF1D" transform="translate(111.375,85.9375)"/>
<path d="M0 0 C2.33746522 0.30300475 4.67085177 0.63858045 7 1 C8.11375 0.7215625 8.11375 0.7215625 9.25 0.4375 C10.11625 0.2209375 10.11625 0.2209375 11 0 C11.99 0.66 12.98 1.32 14 2 C13.67 3.98 13.34 5.96 13 8 C10.33333333 8 7.66666667 8 5 8 C3.989375 8.020625 2.97875 8.04125 1.9375 8.0625 C-1 8 -1 8 -2 7 C-2.1875 4.5625 -2.1875 4.5625 -2 2 C-1.34 1.34 -0.68 0.68 0 0 Z " fill="#FECF1D" transform="translate(30,73)"/>
<path d="M0 0 C2.5625 0.1875 2.5625 0.1875 4.5625 2.1875 C4.1875 4.8125 4.1875 4.8125 3.5625 7.1875 C-1.1875 8.3125 -1.1875 8.3125 -3.4375 7.1875 C-3.48004356 5.18795254 -3.47830783 3.18708364 -3.4375 1.1875 C-2.4375 0.1875 -2.4375 0.1875 0 0 Z " fill="#FECF1E" transform="translate(192.4375,80.8125)"/>
<path d="M0 0 C2.5 0.125 2.5 0.125 3.5 1.125 C3.54080783 3.12458364 3.54254356 5.12545254 3.5 7.125 C1.1875 7.8125 1.1875 7.8125 -1.5 8.125 C-3.375 6.9375 -3.375 6.9375 -4.5 5.125 C-4.08147866 1.5675686 -3.71072057 0.18553603 0 0 Z " fill="#FECF1E" transform="translate(184.5,80.875)"/>
</svg>
